<svg width="49" height="49" viewBox="0 0 49 49" fill="none" xmlns="http://www.w3.org/2000/svg">
<path d="M35.1001 20.0996C35.1001 19.304 34.784 18.5409 34.2214 17.9783C33.6588 17.4157 32.8957 17.0996 32.1001 17.0996C31.3044 17.0996 30.5414 17.4157 29.9788 17.9783C29.4162 18.5409 29.1001 19.304 29.1001 20.0996C29.1001 20.8953 29.4162 21.6583 29.9788 22.2209C30.5414 22.7835 31.3044 23.0996 32.1001 23.0996C32.8957 23.0996 33.6588 22.7835 34.2214 22.2209C34.784 21.6583 35.1001 20.8953 35.1001 20.0996ZM20.1001 20.0996C20.1001 19.304 19.784 18.5409 19.2214 17.9783C18.6588 17.4157 17.8957 17.0996 17.1001 17.0996C16.3044 17.0996 15.5414 17.4157 14.9788 17.9783C14.4162 18.5409 14.1001 19.304 14.1001 20.0996C14.1001 20.8953 14.4162 21.6583 14.9788 22.2209C15.5414 22.7835 16.3044 23.0996 17.1001 23.0996C17.8957 23.0996 18.6588 22.7835 19.2214 22.2209C19.784 21.6583 20.1001 20.8953 20.1001 20.0996ZM20.0221 33.7586C19.8458 33.6686 19.6534 33.6143 19.4561 33.5989C19.2587 33.5836 19.0603 33.6074 18.8722 33.6691C18.6841 33.7308 18.51 33.8292 18.3601 33.9584C18.2102 34.0877 18.0874 34.2454 17.9987 34.4224C17.91 34.5994 17.8572 34.7922 17.8434 34.9896C17.8295 35.1871 17.8549 35.3854 17.9181 35.573C17.9813 35.7606 18.0809 35.9339 18.2114 36.0828C18.3418 36.2317 18.5004 36.3533 18.6781 36.4406C20.4301 37.3166 22.5451 37.7246 24.6001 37.7246C26.6551 37.7246 28.7701 37.3166 30.5221 36.4406C30.6998 36.3533 30.8584 36.2317 30.9888 36.0828C31.1193 35.9339 31.2189 35.7606 31.2821 35.573C31.3453 35.3854 31.3706 35.1871 31.3568 34.9896C31.343 34.7922 31.2902 34.5994 31.2015 34.4224C31.1128 34.2454 30.99 34.0877 30.8401 33.9584C30.6902 33.8292 30.5161 33.7308 30.328 33.6691C30.1399 33.6074 29.9415 33.5836 29.7441 33.5989C29.5468 33.6143 29.3544 33.6686 29.1781 33.7586C27.9301 34.3826 26.2951 34.7246 24.6001 34.7246C22.9051 34.7246 21.2701 34.3826 20.0221 33.7586ZM48.6001 24.5996C48.6001 18.2344 46.0715 12.1299 41.5707 7.62905C37.0698 3.12817 30.9653 0.599609 24.6001 0.599609C18.2349 0.599609 12.1304 3.12817 7.62954 7.62905C3.12866 12.1299 0.600098 18.2344 0.600098 24.5996C0.600098 30.9648 3.12866 37.0693 7.62954 41.5702C12.1304 46.071 18.2349 48.5996 24.6001 48.5996C30.9653 48.5996 37.0698 46.071 41.5707 41.5702C46.0715 37.0693 48.6001 30.9648 48.6001 24.5996ZM3.6001 24.5996C3.6001 21.8419 4.14328 19.1111 5.19863 16.5633C6.25398 14.0154 7.80082 11.7004 9.75085 9.75037C11.7009 7.80034 14.0159 6.25349 16.5637 5.19814C19.1116 4.14279 21.8423 3.59961 24.6001 3.59961C27.3579 3.59961 30.0886 4.14279 32.6365 5.19814C35.1843 6.25349 37.4993 7.80034 39.4493 9.75037C41.3994 11.7004 42.9462 14.0154 44.0016 16.5633C45.0569 19.1111 45.6001 21.8419 45.6001 24.5996C45.6001 30.1692 43.3876 35.5106 39.4493 39.4489C35.5111 43.3871 30.1696 45.5996 24.6001 45.5996C19.0306 45.5996 13.6891 43.3871 9.75085 39.4489C5.81259 35.5106 3.6001 30.1692 3.6001 24.5996Z" fill="#FFF8F2"/>
</svg>
