<svg width="357" height="1117" viewBox="0 0 357 1117" fill="none" xmlns="http://www.w3.org/2000/svg">
<path d="M84 1056C84 1003.53 126.533 961 179 961C231.467 961 274 1003.53 274 1056V1117H84V1056Z" fill="#303030"/>
<path d="M84 888C84 913.196 94.0089 937.359 111.825 955.175C129.641 972.991 153.804 983 179 983C204.196 983 228.359 972.991 246.175 955.175C263.991 937.359 274 913.196 274 888L179 888L84 888Z" fill="#303030"/>
<path d="M0 0H357V597.5C357 696.083 277.083 776 178.5 776C79.9172 776 0 696.083 0 597.5V0Z" fill="#FFFDFB"/>
<rect width="1.3125" height="15.0938" transform="matrix(-1 0 0 1 193.25 790.375)" fill="#303030"/>
<rect width="1.3125" height="15.0938" transform="matrix(-1 0 0 1 183.938 790.375)" fill="#303030"/>
<rect width="1.3125" height="15.0938" transform="matrix(-1 0 0 1 174.625 790.375)" fill="#303030"/>
<rect width="1.3125" height="15.0938" transform="matrix(-1 0 0 1 165.312 790.375)" fill="#303030"/>
<rect width="1.3125" height="15.0938" transform="matrix(-1 0 0 1 193.25 813.469)" fill="#303030"/>
<rect width="1.3125" height="15.0938" transform="matrix(-1 0 0 1 183.938 813.469)" fill="#303030"/>
<rect width="1.3125" height="15.0938" transform="matrix(-1 0 0 1 174.625 813.469)" fill="#303030"/>
<rect width="1.3125" height="15.0938" transform="matrix(-1 0 0 1 165.312 813.469)" fill="#303030"/>
<rect width="1.3125" height="15.0938" transform="matrix(-1 0 0 1 193.25 836.562)" fill="#303030"/>
<rect width="1.3125" height="15.0938" transform="matrix(-1 0 0 1 183.938 836.562)" fill="#303030"/>
<rect width="1.3125" height="15.0938" transform="matrix(-1 0 0 1 174.625 836.562)" fill="#303030"/>
<rect width="1.3125" height="15.0938" transform="matrix(-1 0 0 1 165.312 836.562)" fill="#303030"/>
<rect width="1.3125" height="15.0938" transform="matrix(-1 0 0 1 193.25 859.656)" fill="#303030"/>
<rect width="1.3125" height="15.0938" transform="matrix(-1 0 0 1 183.938 859.656)" fill="#303030"/>
<rect width="1.3125" height="15.0938" transform="matrix(-1 0 0 1 174.625 859.656)" fill="#303030"/>
<rect width="1.3125" height="15.0938" transform="matrix(-1 0 0 1 165.312 859.656)" fill="#303030"/>
<rect width="1.3125" height="15.0938" transform="matrix(-1 0 0 1 193.25 698)" fill="#303030"/>
<rect width="1.3125" height="15.0938" transform="matrix(-1 0 0 1 183.938 698)" fill="#303030"/>
<rect width="1.3125" height="15.0938" transform="matrix(-1 0 0 1 174.625 698)" fill="#303030"/>
<rect width="1.3125" height="15.0938" transform="matrix(-1 0 0 1 165.312 698)" fill="#303030"/>
<rect width="1.3125" height="15.0938" transform="matrix(-1 0 0 1 193.25 721.094)" fill="#303030"/>
<rect width="1.3125" height="15.0938" transform="matrix(-1 0 0 1 183.938 721.094)" fill="#303030"/>
<rect width="1.3125" height="15.0938" transform="matrix(-1 0 0 1 174.625 721.094)" fill="#303030"/>
<rect width="1.3125" height="15.0938" transform="matrix(-1 0 0 1 165.312 721.094)" fill="#303030"/>
<rect width="1.3125" height="15.0938" transform="matrix(-1 0 0 1 193.25 744.188)" fill="#303030"/>
<rect width="1.3125" height="15.0938" transform="matrix(-1 0 0 1 183.938 744.188)" fill="#303030"/>
<rect width="1.3125" height="15.0938" transform="matrix(-1 0 0 1 174.625 744.188)" fill="#303030"/>
<rect width="1.3125" height="15.0938" transform="matrix(-1 0 0 1 165.312 744.188)" fill="#303030"/>
<rect width="1.3125" height="15.0938" transform="matrix(-1 0 0 1 193.25 767.281)" fill="#303030"/>
<rect width="1.3125" height="15.0938" transform="matrix(-1 0 0 1 183.938 767.281)" fill="#303030"/>
<rect width="1.3125" height="15.0938" transform="matrix(-1 0 0 1 174.625 767.281)" fill="#303030"/>
<rect width="1.3125" height="15.0938" transform="matrix(-1 0 0 1 165.312 767.281)" fill="#303030"/>
</svg>
