<svg width="64" height="64" viewBox="0 0 64 64" fill="none" xmlns="http://www.w3.org/2000/svg">
<path d="M55.1249 37.8751C55.061 37.6661 54.9318 37.483 54.7564 37.3525C54.581 37.2221 54.3685 37.1512 54.1499 37.1501L53.8499 37.2001C50.0995 38.2339 46.142 38.2548 42.3809 37.2605C38.6197 36.2663 35.1895 34.2925 32.4399 31.5403C29.6903 28.7882 27.7197 25.3561 26.7289 21.5941C25.7381 17.832 25.7626 13.8746 26.7999 10.1251C26.8204 10.0519 26.8289 9.97594 26.8249 9.90008C26.8402 9.68867 26.7879 9.47789 26.6755 9.29815C26.5632 9.11841 26.3967 8.97901 26.1999 8.90008C25.9925 8.81759 25.7631 8.80876 25.5499 8.87508C21.5137 10.0033 17.8433 12.1688 14.9039 15.1561C11.9644 18.1435 9.85852 21.8484 8.79564 25.9023C7.73276 29.9563 7.74998 34.2179 8.84558 38.2631C9.94118 42.3083 12.077 45.9961 15.0404 48.9596C18.0039 51.9231 21.6917 54.0588 25.7369 55.1544C29.7821 56.25 34.0437 56.2673 38.0977 55.2044C42.1516 54.1415 45.8566 52.0356 48.8439 49.0962C51.8312 46.1567 53.9967 42.4863 55.1249 38.4501C55.1747 38.2617 55.1747 38.0635 55.1249 37.8751ZM31.9999 54.0001C26.8246 54.0072 21.8124 52.1897 17.8447 48.8669C13.8769 45.5442 11.2075 40.929 10.3059 35.8328C9.4043 30.7366 10.3282 25.4857 12.9151 21.0033C15.502 16.5209 19.5863 13.094 24.4499 11.3251C23.6854 15.1958 23.8859 19.1952 25.0338 22.97C26.1816 26.7448 28.2415 30.1788 31.0313 32.9687C33.8212 35.7585 37.2552 37.8184 41.03 38.9662C44.8048 40.1141 48.8042 40.3146 52.6749 39.5501C51.1173 43.7821 48.3009 47.4355 44.6046 50.0189C40.9083 52.6023 36.5095 53.9916 31.9999 54.0001V54.0001Z" fill="#FFF8F2"/>
</svg>
