<svg width="65" height="65" viewBox="0 0 65 65" fill="none" xmlns="http://www.w3.org/2000/svg">
<path d="M49.699 14.0248C46.0966 11.899 41.8783 10.6914 37.3788 10.7283C33.7208 10.76 30.1196 11.6296 26.8568 13.2692C23.594 14.9088 20.7582 17.2738 18.5709 20.1795C16.3837 23.0851 14.9043 26.4525 14.2486 30.0185C13.5928 33.5844 13.7784 37.2521 14.7909 40.7349C15.8034 44.2177 17.6152 47.4212 20.0848 50.0948C22.5544 52.7683 25.6148 54.8396 29.0267 56.1465C32.4386 57.4535 36.1095 57.9607 39.7523 57.6286C43.3951 57.2965 46.9112 56.134 50.0255 54.232C44.859 53.9567 39.9931 51.7399 36.4194 48.0334C32.8456 44.3269 30.8328 39.4096 30.7912 34.2833C30.7496 29.157 32.6822 24.2076 36.1953 20.4435C39.7084 16.6795 44.5377 14.384 49.699 14.0248Z" fill="#FFF8F2"/>
</svg>
