<svg width="48" height="48" viewBox="0 0 48 48" fill="none" xmlns="http://www.w3.org/2000/svg">
<path fill-rule="evenodd" clip-rule="evenodd" d="M15.3333 19.9997C15.1565 19.9997 14.987 20.0699 14.8619 20.1949C14.7369 20.32 14.6667 20.4895 14.6667 20.6663C14.6667 20.8432 14.7369 21.0127 14.8619 21.1377C14.987 21.2628 15.1565 21.333 15.3333 21.333C15.5101 21.333 15.6797 21.2628 15.8047 21.1377C15.9298 21.0127 16 20.8432 16 20.6663C16 20.4895 15.9298 20.32 15.8047 20.1949C15.6797 20.0699 15.5101 19.9997 15.3333 19.9997ZM12 20.6663C12 19.7823 12.3512 18.9344 12.9763 18.3093C13.6014 17.6842 14.4493 17.333 15.3333 17.333C16.2174 17.333 17.0652 17.6842 17.6904 18.3093C18.3155 18.9344 18.6667 19.7823 18.6667 20.6663C18.6667 21.5504 18.3155 22.3982 17.6904 23.0234C17.0652 23.6485 16.2174 23.9997 15.3333 23.9997C14.4493 23.9997 13.6014 23.6485 12.9763 23.0234C12.3512 22.3982 12 21.5504 12 20.6663Z" fill="#FFF8F2"/>
<path d="M15.3333 19.9997C15.1565 19.9997 14.987 20.0699 14.8619 20.1949C14.7369 20.32 14.6667 20.4895 14.6667 20.6663C14.6667 20.8432 14.7369 21.0127 14.8619 21.1377C14.987 21.2628 15.1565 21.333 15.3333 21.333C15.5101 21.333 15.6797 21.2628 15.8047 21.1377C15.9298 21.0127 16 20.8432 16 20.6663C16 20.4895 15.9298 20.32 15.8047 20.1949C15.6797 20.0699 15.5101 19.9997 15.3333 19.9997Z" fill="#FFF8F2"/>
<path fill-rule="evenodd" clip-rule="evenodd" d="M32.6667 19.9997C32.4899 19.9997 32.3203 20.0699 32.1953 20.1949C32.0703 20.32 32 20.4895 32 20.6663C32 20.8432 32.0703 21.0127 32.1953 21.1377C32.3203 21.2628 32.4899 21.333 32.6667 21.333C32.8435 21.333 33.0131 21.2628 33.1381 21.1377C33.2631 21.0127 33.3334 20.8432 33.3334 20.6663C33.3334 20.4895 33.2631 20.32 33.1381 20.1949C33.0131 20.0699 32.8435 19.9997 32.6667 19.9997ZM29.3334 20.6663C29.3334 19.7823 29.6846 18.9344 30.3097 18.3093C30.9348 17.6842 31.7827 17.333 32.6667 17.333C33.5508 17.333 34.3986 17.6842 35.0237 18.3093C35.6489 18.9344 36 19.7823 36 20.6663C36 21.5504 35.6489 22.3982 35.0237 23.0234C34.3986 23.6485 33.5508 23.9997 32.6667 23.9997C31.7827 23.9997 30.9348 23.6485 30.3097 23.0234C29.6846 22.3982 29.3334 21.5504 29.3334 20.6663Z" fill="#FFF8F2"/>
<path d="M32.6667 19.9997C32.4899 19.9997 32.3203 20.0699 32.1953 20.1949C32.0703 20.32 32 20.4895 32 20.6663C32 20.8432 32.0703 21.0127 32.1953 21.1377C32.3203 21.2628 32.4899 21.333 32.6667 21.333C32.8435 21.333 33.0131 21.2628 33.1381 21.1377C33.2631 21.0127 33.3334 20.8432 33.3334 20.6663C33.3334 20.4895 33.2631 20.32 33.1381 20.1949C33.0131 20.0699 32.8435 19.9997 32.6667 19.9997Z" fill="#FFF8F2"/>
<path fill-rule="evenodd" clip-rule="evenodd" d="M24 45.3333C35.7827 45.3333 45.3333 35.7827 45.3333 24C45.3333 12.2173 35.7827 2.66667 24 2.66667C12.2173 2.66667 2.66667 12.2173 2.66667 24C2.66667 35.7827 12.2173 45.3333 24 45.3333ZM24 48C37.2547 48 48 37.2547 48 24C48 10.7453 37.2547 0 24 0C10.7453 0 0 10.7453 0 24C0 37.2547 10.7453 48 24 48Z" fill="#FFF8F2"/>
<path fill-rule="evenodd" clip-rule="evenodd" d="M20.4266 38.0181L20.368 38.0648C20.0932 38.2876 19.7412 38.3921 19.3894 38.3553C19.0376 38.3186 18.7148 38.1435 18.492 37.8688C18.2692 37.594 18.1647 37.242 18.2014 36.8902C18.2382 36.5384 18.4132 36.2156 18.688 35.9928L18.8666 35.8488C20.4453 34.5688 22.0813 33.2421 24.5653 32.5701C27.128 31.8768 30.444 31.9114 35.424 33.0008C35.595 33.0383 35.7571 33.1091 35.9008 33.2091C36.0445 33.3092 36.1671 33.4366 36.2615 33.5841C36.356 33.7315 36.4205 33.8962 36.4513 34.0686C36.4822 34.2409 36.4788 34.4177 36.4413 34.5888C36.4038 34.7599 36.333 34.9219 36.233 35.0656C36.1329 35.2093 36.0055 35.3319 35.858 35.4263C35.7105 35.5208 35.5459 35.5853 35.3735 35.6161C35.2011 35.647 35.0244 35.6436 34.8533 35.6061C30.064 34.5581 27.2333 34.6115 25.2626 35.1448C23.3293 35.6675 22.08 36.6781 20.4266 38.0181Z" fill="#FFF8F2"/>
</svg>
