<svg width="48" height="48" viewBox="0 0 48 48" fill="none" xmlns="http://www.w3.org/2000/svg">
<path d="M33.8987 42.9027C30.8453 44.5043 27.4479 45.3386 24 45.3333C12.2173 45.3333 2.66667 35.7827 2.66667 24C2.66667 12.2173 12.2173 2.66667 24 2.66667C35.7827 2.66667 45.3333 12.2173 45.3333 24C45.3333 24.2227 45.3293 24.4453 45.3227 24.6667H47.9907C47.9973 24.4453 48 24.2227 48 24C48 10.7453 37.2547 0 24 0C10.7453 0 0 10.7453 0 24C0 37.2547 10.7453 48 24 48C28.0333 48 31.8347 47.0053 35.172 45.2467L33.9 42.9027H33.8987Z" fill="#FFF8F2"/>
<path d="M10.324 23.1334C10.164 24.1174 10.832 25.0601 11.7427 25.6441C12.6947 26.2534 14.052 26.5867 15.6494 26.3507C16.3633 26.254 17.0483 26.0059 17.6586 25.6231C18.2688 25.2402 18.7903 24.7314 19.188 24.1307C19.86 23.1121 20.136 21.8734 19.828 20.9547C19.7923 20.8486 19.7304 20.7532 19.648 20.6774C19.5657 20.6015 19.4655 20.5476 19.3569 20.5206C19.2482 20.4936 19.1345 20.4945 19.0262 20.523C18.9179 20.5516 18.8186 20.607 18.7374 20.6841C16.3427 22.9561 13.6387 23.5147 11.2134 22.6147C11.121 22.5806 11.0221 22.5674 10.924 22.576C10.8259 22.5846 10.7309 22.6149 10.6458 22.6646C10.5608 22.7143 10.4878 22.7823 10.4322 22.8636C10.3765 22.9448 10.3396 23.0375 10.324 23.1347V23.1334Z" fill="#FFF8F2"/>
<path d="M37.092 23.1334C37.2507 24.1174 36.5827 25.0601 35.672 25.6441C34.72 26.2534 33.364 26.5867 31.7653 26.3507C31.0517 26.2538 30.3669 26.0057 29.7569 25.6228C29.1469 25.24 28.6256 24.7313 28.228 24.1307C27.556 23.1121 27.2787 21.8734 27.588 20.9547C27.6238 20.8486 27.6857 20.7532 27.768 20.6774C27.8504 20.6015 27.9505 20.5476 28.0592 20.5206C28.1679 20.4936 28.2816 20.4945 28.3899 20.523C28.4981 20.5516 28.5975 20.607 28.6787 20.6841C31.0733 22.9561 33.7773 23.5147 36.2013 22.6147C36.2938 22.5804 36.3928 22.5669 36.4911 22.5754C36.5894 22.5839 36.6846 22.6141 36.7698 22.6639C36.855 22.7136 36.9281 22.7817 36.9838 22.8631C37.0395 22.9445 37.0765 23.0373 37.092 23.1347V23.1334Z" fill="#FFF8F2"/>
<path fill-rule="evenodd" clip-rule="evenodd" d="M40 39.9997C41.4144 39.9997 42.771 39.4378 43.7712 38.4376C44.7714 37.4374 45.3333 36.0808 45.3333 34.6663C45.3333 29.9997 40 25.333 40 25.333C40 25.333 34.6666 29.9997 34.6666 34.6663C34.6666 36.0808 35.2285 37.4374 36.2287 38.4376C37.2289 39.4378 38.5855 39.9997 40 39.9997ZM40 37.333C40.7072 37.333 41.3855 37.0521 41.8856 36.552C42.3857 36.0519 42.6666 35.3736 42.6666 34.6663C42.6666 33.245 41.7946 31.5063 40.5466 29.8663C40.3626 29.6263 40.18 29.3983 40 29.1837C39.82 29.397 39.6373 29.6263 39.4533 29.8663C38.2066 31.5063 37.3333 33.245 37.3333 34.6663C37.3333 35.3736 37.6142 36.0519 38.1143 36.552C38.6144 37.0521 39.2927 37.333 40 37.333Z" fill="#FFF8F2"/>
<path d="M19.7334 36.8C21.8667 33.956 26.1334 33.956 28.2667 36.8C28.4789 37.0829 28.7948 37.2699 29.1448 37.3199C29.4949 37.3699 29.8505 37.2788 30.1334 37.0667C30.4163 36.8545 30.6033 36.5386 30.6533 36.1886C30.7033 35.8385 30.6122 35.4829 30.4 35.2C27.2 30.9333 20.8 30.9333 17.6 35.2C17.3879 35.4829 17.2968 35.8385 17.3468 36.1886C17.3968 36.5386 17.5838 36.8545 17.8667 37.0667C18.1496 37.2788 18.5052 37.3699 18.8553 37.3199C19.2053 37.2699 19.5212 37.0829 19.7334 36.8Z" fill="#FFF8F2"/>
</svg>
