<svg width="700" height="700" viewBox="0 0 700 700" fill="none" xmlns="http://www.w3.org/2000/svg">
<mask id="path-1-inside-1_110_558" fill="white">
<path d="M700 350C700 543.3 543.3 700 350 700C156.7 700 0 543.3 0 350C0 156.7 156.7 0 350 0C543.3 0 700 156.7 700 350Z"/>
</mask>
<path d="M871 350C871 346.216 870.959 342.438 870.878 338.667L528.957 346.01C528.986 347.334 529 348.664 529 350H871ZM867.954 293.466C867.136 285.913 866.155 278.402 865.016 270.938L526.933 322.55C527.323 325.108 527.66 327.69 527.942 330.294L867.954 293.466ZM856.175 226.257C854.37 218.856 852.407 211.515 850.289 204.238L521.912 299.803C522.633 302.278 523.301 304.775 523.915 307.295L856.175 226.257ZM835.645 161.087C832.885 153.995 829.975 146.98 826.919 140.046L513.958 277.955C515 280.32 515.991 282.71 516.931 285.125L835.645 161.087ZM806.761 99.2446C803.104 92.592 799.306 86.0299 795.374 79.5624L503.159 257.255C504.51 259.477 505.813 261.728 507.066 264.008L806.761 99.2446ZM770.099 41.8078C765.615 35.7031 761.003 29.7012 756.265 23.806L489.677 238.037C491.315 240.074 492.908 242.148 494.455 244.254L770.099 41.8078ZM726.337 -10.2948C721.106 -15.7573 715.757 -21.1059 710.295 -26.3365L473.764 220.68C475.656 222.492 477.508 224.344 479.32 226.236L726.337 -10.2948ZM676.194 -56.2652C670.299 -61.0026 664.297 -65.6152 658.192 -70.0987L455.746 205.545C457.852 207.092 459.926 208.685 461.964 210.323L676.194 -56.2652ZM620.438 -95.3736C613.97 -99.3064 607.408 -103.104 600.755 -106.761L435.992 192.934C438.272 194.187 440.523 195.49 442.745 196.841L620.438 -95.3736ZM559.954 -126.919C553.02 -129.975 546.005 -132.885 538.913 -135.645L414.875 183.069C417.29 184.009 419.68 185 422.045 186.042L559.954 -126.919ZM495.762 -150.289C488.485 -152.407 481.144 -154.37 473.743 -156.175L392.705 176.085C395.225 176.699 397.722 177.367 400.197 178.088L495.762 -150.289ZM429.062 -165.016C421.598 -166.155 414.087 -167.136 406.534 -167.954L369.706 172.058C372.31 172.34 374.892 172.677 377.45 173.067L429.062 -165.016ZM361.333 -170.878C357.562 -170.959 353.784 -171 350 -171V171C351.336 171 352.666 171.014 353.99 171.043L361.333 -170.878ZM350 -171C346.216 -171 342.438 -170.959 338.667 -170.878L346.01 171.043C347.334 171.014 348.664 171 350 171V-171ZM293.466 -167.954C285.913 -167.136 278.402 -166.155 270.938 -165.016L322.55 173.067C325.108 172.677 327.69 172.34 330.294 172.058L293.466 -167.954ZM226.257 -156.175C218.856 -154.37 211.515 -152.407 204.238 -150.289L299.803 178.088C302.278 177.367 304.775 176.699 307.295 176.085L226.257 -156.175ZM161.087 -135.645C153.995 -132.885 146.98 -129.975 140.046 -126.919L277.955 186.042C280.32 185 282.71 184.009 285.125 183.069L161.087 -135.645ZM99.2446 -106.761C92.592 -103.104 86.0299 -99.3065 79.5624 -95.3736L257.255 196.841C259.477 195.49 261.728 194.187 264.008 192.934L99.2446 -106.761ZM41.8078 -70.0988C35.7031 -65.6152 29.7012 -61.0027 23.806 -56.2653L238.037 210.323C240.074 208.685 242.148 207.092 244.254 205.545L41.8078 -70.0988ZM-10.2948 -26.3366C-15.7573 -21.1059 -21.1059 -15.7573 -26.3365 -10.2948L220.68 226.236C222.492 224.344 224.344 222.492 226.236 220.68L-10.2948 -26.3366ZM-56.2652 23.806C-61.0026 29.7012 -65.6152 35.7031 -70.0987 41.8077L205.545 244.254C207.092 242.148 208.685 240.074 210.323 238.037L-56.2652 23.806ZM-95.3736 79.5623C-99.3064 86.0298 -103.104 92.5919 -106.761 99.2446L192.934 264.008C194.187 261.728 195.49 259.477 196.841 257.255L-95.3736 79.5623ZM-126.919 140.046C-129.975 146.98 -132.885 153.995 -135.645 161.087L183.069 285.125C184.009 282.71 185 280.32 186.042 277.955L-126.919 140.046ZM-150.289 204.238C-152.407 211.515 -154.37 218.856 -156.175 226.257L176.085 307.295C176.699 304.775 177.367 302.278 178.088 299.803L-150.289 204.238ZM-165.016 270.938C-166.155 278.402 -167.136 285.913 -167.954 293.466L172.058 330.294C172.34 327.69 172.677 325.108 173.067 322.55L-165.016 270.938ZM-170.878 338.667C-170.959 342.438 -171 346.216 -171 350H171C171 348.664 171.014 347.334 171.043 346.01L-170.878 338.667ZM-171 350C-171 353.784 -170.959 357.562 -170.878 361.333L171.043 353.99C171.014 352.666 171 351.336 171 350H-171ZM-167.954 406.534C-167.136 414.087 -166.155 421.598 -165.016 429.062L173.067 377.45C172.677 374.892 172.34 372.31 172.058 369.706L-167.954 406.534ZM-156.175 473.743C-154.37 481.144 -152.407 488.485 -150.289 495.762L178.088 400.197C177.367 397.722 176.699 395.225 176.085 392.705L-156.175 473.743ZM-135.645 538.913C-132.885 546.005 -129.975 553.02 -126.919 559.954L186.042 422.045C185 419.68 184.009 417.29 183.069 414.875L-135.645 538.913ZM-106.761 600.755C-103.104 607.408 -99.3065 613.97 -95.3736 620.438L196.841 442.745C195.49 440.523 194.187 438.272 192.934 435.992L-106.761 600.755ZM-70.0988 658.192C-65.6152 664.297 -61.0027 670.299 -56.2653 676.194L210.323 461.963C208.685 459.926 207.092 457.852 205.545 455.746L-70.0988 658.192ZM-26.3366 710.295C-21.1059 715.757 -15.7573 721.106 -10.2948 726.337L226.236 479.32C224.344 477.508 222.492 475.656 220.68 473.764L-26.3366 710.295ZM23.806 756.265C29.7012 761.003 35.7031 765.615 41.8077 770.099L244.254 494.455C242.148 492.908 240.074 491.315 238.037 489.677L23.806 756.265ZM79.5623 795.374C86.0298 799.306 92.5919 803.104 99.2446 806.761L264.008 507.066C261.728 505.813 259.477 504.51 257.255 503.159L79.5623 795.374ZM140.046 826.919C146.98 829.975 153.995 832.885 161.087 835.645L285.125 516.931C282.71 515.991 280.32 515 277.955 513.958L140.046 826.919ZM204.238 850.289C211.515 852.407 218.856 854.37 226.257 856.175L307.295 523.915C304.775 523.301 302.278 522.633 299.803 521.912L204.238 850.289ZM270.938 865.016C278.402 866.155 285.913 867.136 293.466 867.954L330.294 527.942C327.69 527.66 325.108 527.323 322.55 526.933L270.938 865.016ZM338.667 870.878C342.438 870.959 346.216 871 350 871V529C348.664 529 347.334 528.986 346.01 528.957L338.667 870.878ZM350 871C353.784 871 357.562 870.959 361.333 870.878L353.99 528.957C352.666 528.986 351.336 529 350 529V871ZM406.534 867.954C414.087 867.136 421.598 866.155 429.062 865.016L377.45 526.933C374.892 527.323 372.31 527.66 369.706 527.942L406.534 867.954ZM473.743 856.175C481.144 854.37 488.485 852.407 495.762 850.289L400.197 521.912C397.722 522.633 395.225 523.301 392.705 523.915L473.743 856.175ZM538.913 835.645C546.005 832.885 553.02 829.975 559.954 826.919L422.045 513.958C419.68 515 417.29 515.991 414.875 516.931L538.913 835.645ZM600.755 806.761C607.408 803.104 613.97 799.306 620.438 795.374L442.745 503.159C440.523 504.51 438.272 505.813 435.992 507.066L600.755 806.761ZM658.192 770.099C664.297 765.615 670.299 761.003 676.194 756.265L461.963 489.677C459.926 491.315 457.852 492.908 455.746 494.455L658.192 770.099ZM710.295 726.337C715.757 721.106 721.106 715.757 726.337 710.295L479.32 473.764C477.508 475.656 475.656 477.508 473.764 479.32L710.295 726.337ZM756.265 676.194C761.003 670.299 765.615 664.297 770.099 658.192L494.455 455.746C492.908 457.852 491.315 459.926 489.677 461.964L756.265 676.194ZM795.374 620.438C799.306 613.97 803.104 607.408 806.761 600.755L507.066 435.992C505.813 438.272 504.51 440.523 503.159 442.745L795.374 620.438ZM826.919 559.954C829.975 553.02 832.885 546.005 835.645 538.913L516.931 414.875C515.991 417.29 515 419.68 513.958 422.045L826.919 559.954ZM850.289 495.762C852.407 488.485 854.37 481.144 856.175 473.743L523.915 392.705C523.301 395.225 522.633 397.722 521.912 400.197L850.289 495.762ZM865.016 429.062C866.155 421.598 867.136 414.087 867.954 406.534L527.942 369.706C527.66 372.31 527.323 374.892 526.933 377.45L865.016 429.062ZM870.878 361.333C870.959 357.562 871 353.784 871 350H529C529 351.336 528.986 352.666 528.957 353.99L870.878 361.333ZM1042 350C1042 344.992 1041.95 339.99 1041.84 334.996L357.997 349.682C357.999 349.782 358 349.888 358 350H1042ZM1037.96 275.052C1036.87 265.024 1035.57 255.049 1034.06 245.132L357.891 348.356C357.907 348.461 357.923 348.578 357.937 348.708L1037.96 275.052ZM1022.31 185.739C1019.9 175.896 1017.29 166.133 1014.48 156.456L357.724 347.586C357.745 347.659 357.766 347.735 357.785 347.814L1022.31 185.739ZM995.002 99.0679C991.332 89.6375 987.462 80.3101 983.4 71.0911L357.477 346.91C357.512 346.99 357.544 347.068 357.574 347.144L995.002 99.0679ZM956.609 16.8629C951.749 8.02377 946.705 -0.693528 941.481 -9.28388L357.052 346.101C357.112 346.2 357.168 346.297 357.219 346.39L956.609 16.8629ZM907.921 -59.4155C901.969 -67.5191 895.847 -75.4854 889.559 -83.3092L356.383 345.152C356.471 345.261 356.554 345.37 356.633 345.478L907.921 -59.4155ZM849.845 -128.56C842.905 -135.808 835.808 -142.905 828.56 -149.845L355.499 344.189C355.605 344.29 355.71 344.395 355.811 344.501L849.845 -128.56ZM783.309 -189.559C775.485 -195.847 767.519 -201.969 759.416 -207.921L354.522 343.367C354.63 343.446 354.739 343.529 354.848 343.617L783.309 -189.559ZM709.284 -241.481C700.694 -246.705 691.976 -251.749 683.137 -256.609L353.61 342.781C353.703 342.832 353.8 342.888 353.899 342.948L709.284 -241.481ZM628.909 -283.4C619.69 -287.462 610.363 -291.331 600.932 -295.002L352.856 342.426C352.932 342.456 353.01 342.488 353.09 342.523L628.909 -283.4ZM543.544 -314.478C533.867 -317.294 524.104 -319.905 514.261 -322.306L352.186 342.215C352.265 342.234 352.341 342.255 352.414 342.276L543.544 -314.478ZM454.868 -334.057C444.951 -335.571 434.976 -336.873 424.948 -337.959L351.292 342.063C351.422 342.077 351.539 342.093 351.644 342.109L454.868 -334.057ZM365.004 -341.839C360.01 -341.946 355.008 -342 350 -342V342C350.112 342 350.218 342.001 350.318 342.003L365.004 -341.839ZM350 -342C344.992 -342 339.99 -341.946 334.996 -341.839L349.682 342.003C349.782 342.001 349.888 342 350 342V-342ZM275.052 -337.959C265.024 -336.873 255.049 -335.571 245.132 -334.057L348.356 342.109C348.461 342.093 348.578 342.077 348.708 342.063L275.052 -337.959ZM185.739 -322.306C175.896 -319.905 166.133 -317.294 156.456 -314.478L347.586 342.276C347.659 342.255 347.735 342.234 347.814 342.215L185.739 -322.306ZM99.0679 -295.002C89.6375 -291.332 80.3101 -287.462 71.0911 -283.4L346.91 342.523C346.99 342.488 347.068 342.456 347.144 342.426L99.0679 -295.002ZM16.8629 -256.609C8.02377 -251.749 -0.693528 -246.705 -9.28388 -241.481L346.101 342.948C346.2 342.888 346.297 342.832 346.39 342.781L16.8629 -256.609ZM-59.4155 -207.921C-67.5191 -201.969 -75.4854 -195.847 -83.3092 -189.559L345.152 343.617C345.261 343.529 345.37 343.446 345.478 343.367L-59.4155 -207.921ZM-128.56 -149.845C-135.808 -142.905 -142.905 -135.808 -149.845 -128.56L344.189 344.501C344.29 344.395 344.395 344.29 344.501 344.189L-128.56 -149.845ZM-189.559 -83.3093C-195.847 -75.4854 -201.969 -67.5192 -207.921 -59.4155L343.367 345.478C343.446 345.37 343.529 345.261 343.617 345.152L-189.559 -83.3093ZM-241.481 -9.28402C-246.705 -0.693647 -251.749 8.02367 -256.609 16.8628L342.781 346.39C342.832 346.297 342.888 346.2 342.948 346.101L-241.481 -9.28402ZM-283.4 71.0909C-287.462 80.3099 -291.331 89.6373 -295.002 99.0678L342.426 347.144C342.456 347.068 342.488 346.99 342.523 346.91L-283.4 71.0909ZM-314.478 156.456C-317.294 166.133 -319.905 175.896 -322.306 185.739L342.215 347.814C342.234 347.735 342.255 347.659 342.276 347.586L-314.478 156.456ZM-334.057 245.132C-335.571 255.049 -336.873 265.024 -337.959 275.052L342.063 348.708C342.077 348.578 342.093 348.461 342.109 348.356L-334.057 245.132ZM-341.839 334.996C-341.946 339.99 -342 344.992 -342 350H342C342 349.888 342.001 349.782 342.003 349.682L-341.839 334.996ZM-342 350C-342 355.008 -341.946 360.01 -341.839 365.004L342.003 350.318C342.001 350.218 342 350.112 342 350H-342ZM-337.959 424.948C-336.873 434.976 -335.571 444.951 -334.057 454.868L342.109 351.644C342.093 351.539 342.077 351.422 342.063 351.292L-337.959 424.948ZM-322.306 514.261C-319.905 524.104 -317.294 533.867 -314.478 543.544L342.276 352.414C342.255 352.341 342.234 352.265 342.215 352.186L-322.306 514.261ZM-295.002 600.932C-291.332 610.363 -287.462 619.69 -283.4 628.909L342.523 353.09C342.488 353.01 342.456 352.932 342.426 352.856L-295.002 600.932ZM-256.609 683.137C-251.749 691.976 -246.705 700.694 -241.481 709.284L342.948 353.899C342.888 353.8 342.832 353.703 342.781 353.61L-256.609 683.137ZM-207.921 759.416C-201.969 767.519 -195.847 775.485 -189.559 783.309L343.617 354.848C343.529 354.739 343.446 354.63 343.367 354.522L-207.921 759.416ZM-149.845 828.56C-142.905 835.808 -135.808 842.905 -128.56 849.845L344.501 355.811C344.395 355.71 344.29 355.605 344.189 355.499L-149.845 828.56ZM-83.3093 889.559C-75.4854 895.847 -67.5192 901.969 -59.4155 907.921L345.478 356.633C345.37 356.554 345.261 356.471 345.152 356.383L-83.3093 889.559ZM-9.28402 941.481C-0.693647 946.705 8.02367 951.749 16.8628 956.609L346.39 357.219C346.297 357.168 346.2 357.112 346.101 357.052L-9.28402 941.481ZM71.0909 983.4C80.3099 987.462 89.6373 991.332 99.0678 995.002L347.144 357.574C347.068 357.544 346.99 357.512 346.91 357.477L71.0909 983.4ZM156.456 1014.48C166.133 1017.29 175.896 1019.9 185.739 1022.31L347.814 357.785C347.735 357.766 347.659 357.745 347.586 357.724L156.456 1014.48ZM245.132 1034.06C255.049 1035.57 265.024 1036.87 275.052 1037.96L348.708 357.937C348.578 357.923 348.461 357.907 348.356 357.891L245.132 1034.06ZM334.996 1041.84C339.99 1041.95 344.992 1042 350 1042V358C349.888 358 349.782 357.999 349.682 357.997L334.996 1041.84ZM350 1042C355.008 1042 360.01 1041.95 365.004 1041.84L350.318 357.997C350.218 357.999 350.112 358 350 358V1042ZM424.948 1037.96C434.976 1036.87 444.951 1035.57 454.868 1034.06L351.644 357.891C351.539 357.907 351.422 357.923 351.292 357.937L424.948 1037.96ZM514.261 1022.31C524.104 1019.9 533.867 1017.29 543.544 1014.48L352.414 357.724C352.341 357.745 352.265 357.766 352.186 357.785L514.261 1022.31ZM600.932 995.002C610.363 991.332 619.69 987.462 628.909 983.4L353.09 357.477C353.01 357.512 352.932 357.544 352.856 357.574L600.932 995.002ZM683.137 956.609C691.976 951.749 700.694 946.705 709.284 941.481L353.899 357.052C353.8 357.112 353.703 357.168 353.61 357.219L683.137 956.609ZM759.416 907.921C767.519 901.969 775.485 895.847 783.309 889.559L354.848 356.383C354.739 356.471 354.63 356.554 354.522 356.633L759.416 907.921ZM828.56 849.845C835.808 842.905 842.905 835.808 849.845 828.56L355.811 355.499C355.71 355.605 355.605 355.71 355.499 355.811L828.56 849.845ZM889.559 783.309C895.847 775.485 901.969 767.519 907.921 759.416L356.633 354.522C356.554 354.63 356.471 354.739 356.383 354.848L889.559 783.309ZM941.481 709.284C946.705 700.694 951.749 691.976 956.609 683.137L357.219 353.61C357.168 353.703 357.112 353.8 357.052 353.899L941.481 709.284ZM983.4 628.909C987.462 619.69 991.332 610.363 995.002 600.932L357.574 352.856C357.544 352.932 357.512 353.01 357.477 353.09L983.4 628.909ZM1014.48 543.544C1017.29 533.867 1019.9 524.104 1022.31 514.261L357.785 352.186C357.766 352.265 357.745 352.341 357.724 352.414L1014.48 543.544ZM1034.06 454.868C1035.57 444.951 1036.87 434.976 1037.96 424.948L357.937 351.292C357.923 351.422 357.907 351.539 357.891 351.644L1034.06 454.868ZM1041.84 365.004C1041.95 360.01 1042 355.008 1042 350H358C358 350.112 357.999 350.218 357.997 350.318L1041.84 365.004Z" fill="#FFFDFB" mask="url(#path-1-inside-1_110_558)"/>
</svg>
