<svg width="37" height="36" viewBox="0 0 37 36" fill="none" xmlns="http://www.w3.org/2000/svg">
<path d="M29.75 18C29.75 17.7016 29.8685 17.4155 30.0795 17.2045C30.2905 16.9935 30.5766 16.875 30.875 16.875C31.1734 16.875 31.4595 16.9935 31.6705 17.2045C31.8815 17.4155 32 17.7016 32 18V30.375C32 30.6734 31.8815 30.9595 31.6705 31.1705C31.4595 31.3815 31.1734 31.5 30.875 31.5H6.125C5.82663 31.5 5.54048 31.3815 5.32951 31.1705C5.11853 30.9595 5 30.6734 5 30.375V5.625C5 5.32663 5.11853 5.04048 5.32951 4.82951C5.54048 4.61853 5.82663 4.5 6.125 4.5H18.5C18.7984 4.5 19.0845 4.61853 19.2955 4.82951C19.5065 5.04048 19.625 5.32663 19.625 5.625C19.625 5.92337 19.5065 6.20952 19.2955 6.4205C19.0845 6.63147 18.7984 6.75 18.5 6.75H7.25V29.25H29.75V18Z" fill="#FFFDFB"/>
<path d="M16.34 20.1604L18.878 19.2198L30.281 7.81907C30.3885 7.71529 30.4742 7.59115 30.5331 7.4539C30.5921 7.31664 30.6231 7.16902 30.6244 7.01964C30.6257 6.87027 30.5972 6.72213 30.5407 6.58387C30.4841 6.44561 30.4006 6.32 30.2949 6.21437C30.1893 6.10874 30.0637 6.02521 29.9255 5.96864C29.7872 5.91208 29.6391 5.88361 29.4897 5.88491C29.3403 5.88621 29.1927 5.91724 29.0554 5.9762C28.9182 6.03516 28.794 6.12087 28.6903 6.22832L17.285 17.6291L16.34 20.1604ZM31.8718 4.63532C32.1854 4.94874 32.4342 5.3209 32.6039 5.73051C32.7737 6.14013 32.861 6.57917 32.861 7.02257C32.861 7.46596 32.7737 7.90501 32.6039 8.31462C32.4342 8.72424 32.1854 9.09639 31.8718 9.40982L20.2055 21.0761C20.0335 21.2487 19.81 21.3609 19.5688 21.3956L16.34 22.3204C16.34 22.3204 13.584 23.164 13.4604 23.0404C13.3368 22.9168 14.1799 20.1604 14.1799 20.1604L15.1138 16.9406C15.1479 16.6996 15.2592 16.4762 15.431 16.3038L27.0995 4.63757C27.7324 4.00485 28.5907 3.64941 29.4856 3.64941C30.3806 3.64941 31.2388 4.00485 31.8718 4.63757V4.63532Z" fill="#FFFDFB"/>
</svg>
