<svg width="48" height="48" viewBox="0 0 48 48" fill="none" xmlns="http://www.w3.org/2000/svg">
<path fill-rule="evenodd" clip-rule="evenodd" d="M24 45.3333C35.7827 45.3333 45.3333 35.7827 45.3333 24C45.3333 12.2173 35.7827 2.66667 24 2.66667C12.2173 2.66667 2.66667 12.2173 2.66667 24C2.66667 35.7827 12.2173 45.3333 24 45.3333ZM24 48C37.2547 48 48 37.2547 48 24C48 10.7453 37.2547 0 24 0C10.7453 0 0 10.7453 0 24C0 37.2547 10.7453 48 24 48Z" fill="#FFF8F2"/>
<path fill-rule="evenodd" clip-rule="evenodd" d="M14.26 29.3337C16.3333 34.443 20.1533 37.3337 24 37.3337C27.848 37.3337 31.6667 34.443 33.74 29.3337H14.26ZM24 40.0003C18.616 40.0003 13.9493 35.9363 11.656 30.0003C11.6335 29.9431 11.6113 29.8857 11.5893 29.8283C10.9947 28.2403 12.2667 26.667 13.964 26.667H34.0373C35.7346 26.667 37.008 28.2403 36.4106 29.8283C36.3891 29.8857 36.3673 29.9431 36.3453 30.0003C34.0506 35.9363 29.384 40.0003 24 40.0003Z" fill="#FFF8F2"/>
<path d="M20.4027 21.9222C20.576 21.4449 20.524 20.8622 20.3814 20.3316C20.2096 19.7204 19.9345 19.1432 19.568 18.6249C18.7934 17.5196 17.5094 16.5049 15.7747 16.4302C13.9787 16.3556 12.6374 17.4956 11.8107 18.7049C11.4136 19.287 11.1016 19.9227 10.884 20.5929C10.6934 21.1876 10.592 21.7956 10.6587 22.2822C10.674 22.3932 10.717 22.4985 10.7838 22.5885C10.8506 22.6784 10.9389 22.7501 11.0407 22.7968C11.1425 22.8436 11.2544 22.864 11.3662 22.8561C11.4779 22.8481 11.5858 22.8122 11.68 22.7516C12.2134 22.4102 12.772 21.9422 13.2894 21.5102C13.524 21.3129 13.752 21.1236 13.9627 20.9569C14.712 20.3649 15.296 20.0276 15.7787 20.0036C16.2387 19.9809 16.7694 20.2436 17.4387 20.7449C17.6787 20.9236 17.9107 21.1129 18.1507 21.3102L18.4107 21.5222C18.736 21.7849 19.0827 22.0542 19.432 22.2649C19.5163 22.3157 19.6108 22.3473 19.7087 22.3572C19.8065 22.3672 19.9054 22.3554 19.9982 22.3227C20.091 22.2899 20.1754 22.237 20.2453 22.1678C20.3153 22.0985 20.369 22.0147 20.4027 21.9222Z" fill="#FFF8F2"/>
<path d="M27.484 21.9222C27.3106 21.4449 27.364 20.8622 27.5066 20.3316C27.656 19.7769 27.932 19.1809 28.32 18.6249C29.0933 17.5196 30.3786 16.5049 32.1133 16.4302C33.908 16.3556 35.2506 17.4956 36.0773 18.7049C36.496 19.3182 36.808 19.9822 37.004 20.5929C37.1933 21.1876 37.2946 21.7956 37.228 22.2822C37.2125 22.393 37.1695 22.4981 37.1028 22.5878C37.0361 22.6776 36.9479 22.7492 36.8463 22.7959C36.7448 22.8426 36.633 22.8631 36.5215 22.8553C36.4099 22.8476 36.3021 22.8119 36.208 22.7516C35.6746 22.4102 35.1146 21.9422 34.5986 21.5102C34.3626 21.3129 34.136 21.1236 33.9253 20.9569C33.1746 20.3649 32.592 20.0276 32.108 20.0036C31.648 19.9809 31.1173 20.2436 30.4493 20.7449C30.2093 20.9236 29.9773 21.1129 29.7373 21.3102L29.476 21.5222C29.1506 21.7849 28.8053 22.0542 28.456 22.2649C28.3717 22.316 28.2771 22.3477 28.179 22.3578C28.081 22.3679 27.9819 22.3562 27.8889 22.3234C27.796 22.2906 27.7114 22.2377 27.6414 22.1683C27.5714 22.0989 27.5176 22.0149 27.484 21.9222Z" fill="#FFF8F2"/>
</svg>
