<svg width="18" height="18" viewBox="0 0 18 18" fill="none" xmlns="http://www.w3.org/2000/svg">
<path d="M6.05762 5.23665V3.35514C6.05762 2.85614 6.25136 2.37757 6.59623 2.02471C6.9411 1.67186 7.40884 1.47363 7.89656 1.47363H15.2523C15.74 1.47363 16.2078 1.67186 16.5527 2.02471C16.8975 2.37757 17.0913 2.85614 17.0913 3.35514V14.6442C17.0913 15.1432 16.8975 15.6218 16.5527 15.9746C16.2078 16.3275 15.74 16.5257 15.2523 16.5257H8.26435C7.24879 16.5257 6.05762 15.6833 6.05762 14.6442V12.7627" stroke="#FFF8F2" stroke-width="1.5" stroke-linecap="square" stroke-linejoin="round"/>
<path d="M10.4712 12.7633L14.1491 9.00033L10.4712 5.2373" stroke="#FFF8F2" stroke-width="1.5" stroke-linecap="square" stroke-linejoin="round"/>
<path d="M0.908691 9H13.4135" stroke="#FFF8F2" stroke-width="1.5" stroke-linecap="square" stroke-linejoin="round"/>
</svg>
