<svg width="65" height="65" viewBox="0 0 65 65" fill="none" xmlns="http://www.w3.org/2000/svg">
<path d="M37.3788 10.7283C41.8783 10.6914 46.0966 11.899 49.699 14.0248C44.5377 14.384 39.7084 16.6795 36.1953 20.4435C32.6822 24.2076 30.7496 29.157 30.7912 34.2833C30.8328 39.4096 32.8456 44.3269 36.4194 48.0334C39.9931 51.7399 44.859 53.9567 50.0255 54.232C46.9112 56.134 43.3951 57.2965 39.7523 57.6286C36.1095 57.9607 32.4386 57.4535 29.0267 56.1465C25.6148 54.8396 22.5544 52.7683 20.0848 50.0948C17.6152 47.4212 15.8034 44.2177 14.7909 40.7349C13.7784 37.2521 13.5928 33.5844 14.2486 30.0184C14.9043 26.4525 16.3836 23.0851 18.5709 20.1795C20.7582 17.2738 23.594 14.9088 26.8568 13.2692C30.1196 11.6296 33.7208 10.76 37.3788 10.7283V10.7283Z" stroke="#FFFDFB" stroke-width="2" stroke-linecap="round" stroke-linejoin="round"/>
</svg>
