<svg width="17" height="18" viewBox="0 0 17 18" fill="none" xmlns="http://www.w3.org/2000/svg">
<path d="M7.79825 0.900391H9.20175C9.32651 0.900391 9.38889 0.960391 9.38889 1.08039V16.9204C9.38889 17.0404 9.32651 17.1004 9.20175 17.1004H7.79825C7.67349 17.1004 7.61111 17.0404 7.61111 16.9204V1.08039C7.61111 0.960391 7.67349 0.900391 7.79825 0.900391Z" fill="#FFF8F2"/>
<path d="M0.686047 8.09961H16.314C16.438 8.09961 16.5 8.16277 16.5 8.28908V9.71014C16.5 9.83645 16.438 9.89961 16.314 9.89961H0.686047C0.562015 9.89961 0.5 9.83645 0.5 9.71014V8.28908C0.5 8.16277 0.562015 8.09961 0.686047 8.09961Z" fill="#FFF8F2"/>
</svg>
