<svg width="25" height="26" viewBox="0 0 25 26" fill="none" xmlns="http://www.w3.org/2000/svg">
<path d="M20.9595 19.1426C20.4989 18.0517 19.8306 17.0608 18.9917 16.2251C18.1554 15.387 17.1646 14.7188 16.0742 14.2573C16.0645 14.2524 16.0547 14.25 16.0449 14.2451C17.5659 13.1465 18.5547 11.3569 18.5547 9.33789C18.5547 5.99316 15.8447 3.2832 12.5 3.2832C9.15527 3.2832 6.44531 5.99316 6.44531 9.33789C6.44531 11.3569 7.43408 13.1465 8.95508 14.2476C8.94531 14.2524 8.93555 14.2549 8.92578 14.2598C7.83203 14.7212 6.85059 15.3828 6.0083 16.2275C5.17019 17.0639 4.50196 18.0546 4.04053 19.145C3.58721 20.2125 3.34273 21.357 3.32031 22.5166C3.31966 22.5427 3.32423 22.5686 3.33375 22.5928C3.34328 22.6171 3.35756 22.6392 3.37576 22.6579C3.39396 22.6765 3.41572 22.6914 3.43974 22.7015C3.46376 22.7116 3.48956 22.7168 3.51563 22.7168H4.98047C5.08789 22.7168 5.17334 22.6313 5.17578 22.5264C5.22461 20.6416 5.98145 18.8765 7.31934 17.5386C8.70361 16.1543 10.542 15.3926 12.5 15.3926C14.458 15.3926 16.2964 16.1543 17.6807 17.5386C19.0186 18.8765 19.7754 20.6416 19.8242 22.5264C19.8267 22.6338 19.9121 22.7168 20.0195 22.7168H21.4844C21.5104 22.7168 21.5362 22.7116 21.5603 22.7015C21.5843 22.6914 21.606 22.6765 21.6242 22.6579C21.6424 22.6392 21.6567 22.6171 21.6662 22.5928C21.6758 22.5686 21.6803 22.5427 21.6797 22.5166C21.6553 21.3496 21.4136 20.2144 20.9595 19.1426ZM12.5 13.5371C11.3794 13.5371 10.3247 13.1001 9.53125 12.3066C8.73779 11.5132 8.30078 10.4585 8.30078 9.33789C8.30078 8.21729 8.73779 7.1626 9.53125 6.36914C10.3247 5.57568 11.3794 5.13867 12.5 5.13867C13.6206 5.13867 14.6753 5.57568 15.4687 6.36914C16.2622 7.1626 16.6992 8.21729 16.6992 9.33789C16.6992 10.4585 16.2622 11.5132 15.4687 12.3066C14.6753 13.1001 13.6206 13.5371 12.5 13.5371Z" fill="#303030"/>
</svg>
