<?xml version="1.0" standalone="no"?>
<!DOCTYPE svg PUBLIC "-//W3C//DTD SVG 20010904//EN"
 "http://www.w3.org/TR/2001/REC-SVG-20010904/DTD/svg10.dtd">
<svg version="1.0" xmlns="http://www.w3.org/2000/svg"
 width="748.000000pt" height="748.000000pt" viewBox="0 0 748.000000 748.000000"
 preserveAspectRatio="xMidYMid meet">
<metadata>
Created by potrace 1.14, written by Peter Selinger 2001-2017
</metadata>
<g transform="translate(0.000000,748.000000) scale(0.100000,-0.100000)"
fill="#000000" stroke="none">
<path d="M1280 7464 c283 -60 443 -244 511 -584 38 -191 40 -400 36 -3080 -2
-1992 -6 -2609 -16 -2690 -53 -448 -177 -732 -395 -906 -120 -95 -253 -153
-431 -184 -98 -18 -74 -18 1380 -19 1673 -1 1762 2 2120 74 1123 225 1826 973
2110 2243 197 886 191 2108 -15 2959 -312 1289 -1078 2001 -2330 2167 -240 32
-413 36 -1720 35 -1150 -1 -1307 -2 -1250 -15z m2571 -54 c135 -14 193 -25
314 -62 523 -159 877 -623 1075 -1408 91 -363 142 -725 182 -1300 18 -253 18
-1447 0 -1700 -47 -680 -122 -1151 -248 -1558 -255 -823 -686 -1249 -1327
-1312 -263 -26 -449 30 -598 179 -156 156 -221 364 -239 766 -11 227 -14 6388
-3 6398 10 11 731 8 844 -3z"/>
<path d="M4170 4353 c-49 -131 -122 -279 -178 -363 -89 -133 -250 -269 -420
-354 l-53 -27 86 -55 c245 -153 383 -312 534 -614 l70 -139 60 107 c152 274
291 443 516 630 50 41 91 78 93 82 1 4 -39 37 -90 73 -221 157 -362 324 -497
588 -45 87 -83 159 -85 159 -1 0 -17 -39 -36 -87z"/>
</g>
</svg>
